<?xml version="1.0" encoding="UTF-8"?>
<svg xmlns="http://www.w3.org/2000/svg" xmlns:xlink="http://www.w3.org/1999/xlink" width="2576.02" height="3306.3" viewBox="0 0 2576.02 3306.3">
<defs>
<clipPath id="clip-0">

</clipPath>
<clipPath id="clip-1">
<path clip-rule="evenodd" d="M 829.816406 2908.988281 C 939.683594 3118.671875 1165.328125 3265.859375 1380.988281 3269.511719 C 1500.421875 3266.300781 1612.210938 3240.640625 1706.949219 3117.21875 C 1793.671875 3004.230469 1871.628906 2786.878906 1798.878906 2376.691406 C 1759.898438 2494.359375 1678.449219 2507.601562 1610.078125 2433.140625 C 1489.210938 2301.601562 1355.859375 1842.828125 1352.128906 1486.578125 C 1236.78125 1624.898438 1037.640625 1939.589844 1104.519531 2407.710938 C 1114.859375 2480.289062 989.679688 2473.800781 917.582031 2392.738281 C 882.410156 2353.210938 860.480469 2298.789062 851.945312 2230.210938 C 731.203125 2467.441406 722.507812 2704.171875 829.816406 2908.988281 "/>
</clipPath>
<linearGradient id="linear-pattern-0" gradientUnits="userSpaceOnUse" x1="-0.0626278" y1="0" x2="1.084933" y2="0" gradientTransform="matrix(1001.36, 0, 0, 1001.36, 785.221, 2378.04)">
<stop offset="0" stop-color="rgb(41.567993%, 35.68573%, 65.881348%)" stop-opacity="1"/>
<stop offset="0.0625" stop-color="rgb(41.493225%, 35.787964%, 65.95459%)" stop-opacity="1"/>
<stop offset="0.0703125" stop-color="rgb(41.343689%, 35.993958%, 66.099548%)" stop-opacity="1"/>
<stop offset="0.078125" stop-color="rgb(41.195679%, 36.198425%, 66.242981%)" stop-opacity="1"/>
<stop offset="0.0859375" stop-color="rgb(41.047668%, 36.401367%, 66.387939%)" stop-opacity="1"/>
<stop offset="0.09375" stop-color="rgb(40.901184%, 36.605835%, 66.531372%)" stop-opacity="1"/>
<stop offset="0.101563" stop-color="rgb(40.753174%, 36.810303%, 66.676331%)" stop-opacity="1"/>
<stop offset="0.109375" stop-color="rgb(40.605164%, 37.013245%, 66.819763%)" stop-opacity="1"/>
<stop offset="0.117188" stop-color="rgb(40.457153%, 37.217712%, 66.964722%)" stop-opacity="1"/>
<stop offset="0.125" stop-color="rgb(40.310669%, 37.42218%, 67.108154%)" stop-opacity="1"/>
<stop offset="0.132813" stop-color="rgb(40.162659%, 37.625122%, 67.253113%)" stop-opacity="1"/>
<stop offset="0.140625" stop-color="rgb(40.014648%, 37.82959%, 67.396545%)" stop-opacity="1"/>
<stop offset="0.148438" stop-color="rgb(39.866638%, 38.032532%, 67.541504%)" stop-opacity="1"/>
<stop offset="0.15625" stop-color="rgb(39.718628%, 38.237%, 67.684937%)" stop-opacity="1"/>
<stop offset="0.164063" stop-color="rgb(39.572144%, 38.441467%, 67.829895%)" stop-opacity="1"/>
<stop offset="0.171875" stop-color="rgb(39.424133%, 38.644409%, 67.973328%)" stop-opacity="1"/>
<stop offset="0.179688" stop-color="rgb(39.276123%, 38.848877%, 68.118286%)" stop-opacity="1"/>
<stop offset="0.1875" stop-color="rgb(39.128113%, 39.053345%, 68.261719%)" stop-opacity="1"/>
<stop offset="0.195313" stop-color="rgb(38.981628%, 39.256287%, 68.406677%)" stop-opacity="1"/>
<stop offset="0.203125" stop-color="rgb(38.833618%, 39.460754%, 68.55011%)" stop-opacity="1"/>
<stop offset="0.210938" stop-color="rgb(38.685608%, 39.665222%, 68.693542%)" stop-opacity="1"/>
<stop offset="0.21875" stop-color="rgb(38.537598%, 39.868164%, 68.838501%)" stop-opacity="1"/>
<stop offset="0.226563" stop-color="rgb(38.389587%, 40.072632%, 68.981934%)" stop-opacity="1"/>
<stop offset="0.234375" stop-color="rgb(38.243103%, 40.2771%, 69.126892%)" stop-opacity="1"/>
<stop offset="0.242188" stop-color="rgb(38.095093%, 40.480042%, 69.270325%)" stop-opacity="1"/>
<stop offset="0.25" stop-color="rgb(37.947083%, 40.684509%, 69.415283%)" stop-opacity="1"/>
<stop offset="0.257813" stop-color="rgb(37.799072%, 40.887451%, 69.558716%)" stop-opacity="1"/>
<stop offset="0.265625" stop-color="rgb(37.652588%, 41.091919%, 69.703674%)" stop-opacity="1"/>
<stop offset="0.273438" stop-color="rgb(37.504578%, 41.296387%, 69.847107%)" stop-opacity="1"/>
<stop offset="0.28125" stop-color="rgb(37.356567%, 41.499329%, 69.992065%)" stop-opacity="1"/>
<stop offset="0.289063" stop-color="rgb(37.208557%, 41.703796%, 70.135498%)" stop-opacity="1"/>
<stop offset="0.296875" stop-color="rgb(37.062073%, 41.908264%, 70.280457%)" stop-opacity="1"/>
<stop offset="0.304688" stop-color="rgb(36.914062%, 42.111206%, 70.423889%)" stop-opacity="1"/>
<stop offset="0.3125" stop-color="rgb(36.766052%, 42.315674%, 70.568848%)" stop-opacity="1"/>
<stop offset="0.320313" stop-color="rgb(36.618042%, 42.520142%, 70.71228%)" stop-opacity="1"/>
<stop offset="0.328125" stop-color="rgb(36.470032%, 42.723083%, 70.855713%)" stop-opacity="1"/>
<stop offset="0.335938" stop-color="rgb(36.323547%, 42.927551%, 71.000671%)" stop-opacity="1"/>
<stop offset="0.34375" stop-color="rgb(36.175537%, 43.130493%, 71.144104%)" stop-opacity="1"/>
<stop offset="0.351563" stop-color="rgb(36.027527%, 43.334961%, 71.289062%)" stop-opacity="1"/>
<stop offset="0.359375" stop-color="rgb(35.879517%, 43.539429%, 71.432495%)" stop-opacity="1"/>
<stop offset="0.367188" stop-color="rgb(35.733032%, 43.742371%, 71.577454%)" stop-opacity="1"/>
<stop offset="0.375" stop-color="rgb(35.585022%, 43.946838%, 71.720886%)" stop-opacity="1"/>
<stop offset="0.382813" stop-color="rgb(35.437012%, 44.151306%, 71.865845%)" stop-opacity="1"/>
<stop offset="0.390625" stop-color="rgb(35.289001%, 44.354248%, 72.009277%)" stop-opacity="1"/>
<stop offset="0.398438" stop-color="rgb(35.140991%, 44.558716%, 72.154236%)" stop-opacity="1"/>
<stop offset="0.40625" stop-color="rgb(34.994507%, 44.763184%, 72.297668%)" stop-opacity="1"/>
<stop offset="0.414063" stop-color="rgb(34.846497%, 44.966125%, 72.442627%)" stop-opacity="1"/>
<stop offset="0.421875" stop-color="rgb(34.698486%, 45.170593%, 72.58606%)" stop-opacity="1"/>
<stop offset="0.429688" stop-color="rgb(34.550476%, 45.373535%, 72.731018%)" stop-opacity="1"/>
<stop offset="0.4375" stop-color="rgb(34.403992%, 45.578003%, 72.874451%)" stop-opacity="1"/>
<stop offset="0.445313" stop-color="rgb(34.255981%, 45.782471%, 73.019409%)" stop-opacity="1"/>
<stop offset="0.453125" stop-color="rgb(34.107971%, 45.985413%, 73.162842%)" stop-opacity="1"/>
<stop offset="0.460938" stop-color="rgb(33.959961%, 46.18988%, 73.306274%)" stop-opacity="1"/>
<stop offset="0.46875" stop-color="rgb(33.813477%, 46.394348%, 73.451233%)" stop-opacity="1"/>
<stop offset="0.476563" stop-color="rgb(33.665466%, 46.59729%, 73.594666%)" stop-opacity="1"/>
<stop offset="0.484375" stop-color="rgb(33.517456%, 46.801758%, 73.739624%)" stop-opacity="1"/>
<stop offset="0.492188" stop-color="rgb(33.369446%, 47.006226%, 73.883057%)" stop-opacity="1"/>
<stop offset="0.5" stop-color="rgb(33.221436%, 47.209167%, 74.028015%)" stop-opacity="1"/>
<stop offset="0.507813" stop-color="rgb(33.074951%, 47.413635%, 74.171448%)" stop-opacity="1"/>
<stop offset="0.515625" stop-color="rgb(32.926941%, 47.618103%, 74.316406%)" stop-opacity="1"/>
<stop offset="0.523438" stop-color="rgb(32.778931%, 47.821045%, 74.459839%)" stop-opacity="1"/>
<stop offset="0.53125" stop-color="rgb(32.63092%, 48.025513%, 74.604797%)" stop-opacity="1"/>
<stop offset="0.539063" stop-color="rgb(32.484436%, 48.228455%, 74.74823%)" stop-opacity="1"/>
<stop offset="0.546875" stop-color="rgb(32.336426%, 48.432922%, 74.893188%)" stop-opacity="1"/>
<stop offset="0.554688" stop-color="rgb(32.188416%, 48.63739%, 75.036621%)" stop-opacity="1"/>
<stop offset="0.5625" stop-color="rgb(32.040405%, 48.840332%, 75.18158%)" stop-opacity="1"/>
<stop offset="0.570313" stop-color="rgb(31.892395%, 49.0448%, 75.325012%)" stop-opacity="1"/>
<stop offset="0.578125" stop-color="rgb(31.745911%, 49.249268%, 75.468445%)" stop-opacity="1"/>
<stop offset="0.585938" stop-color="rgb(31.5979%, 49.452209%, 75.613403%)" stop-opacity="1"/>
<stop offset="0.59375" stop-color="rgb(31.44989%, 49.656677%, 75.756836%)" stop-opacity="1"/>
<stop offset="0.601563" stop-color="rgb(31.30188%, 49.861145%, 75.901794%)" stop-opacity="1"/>
<stop offset="0.609375" stop-color="rgb(31.155396%, 50.064087%, 76.045227%)" stop-opacity="1"/>
<stop offset="0.617188" stop-color="rgb(31.007385%, 50.268555%, 76.190186%)" stop-opacity="1"/>
<stop offset="0.625" stop-color="rgb(30.859375%, 50.471497%, 76.333618%)" stop-opacity="1"/>
<stop offset="0.632813" stop-color="rgb(30.711365%, 50.675964%, 76.478577%)" stop-opacity="1"/>
<stop offset="0.640625" stop-color="rgb(30.56488%, 50.880432%, 76.622009%)" stop-opacity="1"/>
<stop offset="0.648438" stop-color="rgb(30.41687%, 51.083374%, 76.766968%)" stop-opacity="1"/>
<stop offset="0.65625" stop-color="rgb(30.26886%, 51.287842%, 76.9104%)" stop-opacity="1"/>
<stop offset="0.664062" stop-color="rgb(30.12085%, 51.49231%, 77.055359%)" stop-opacity="1"/>
<stop offset="0.671875" stop-color="rgb(29.972839%, 51.695251%, 77.198792%)" stop-opacity="1"/>
<stop offset="0.679688" stop-color="rgb(29.826355%, 51.899719%, 77.34375%)" stop-opacity="1"/>
<stop offset="0.6875" stop-color="rgb(29.678345%, 52.104187%, 77.487183%)" stop-opacity="1"/>
<stop offset="0.695312" stop-color="rgb(29.530334%, 52.307129%, 77.632141%)" stop-opacity="1"/>
<stop offset="0.703125" stop-color="rgb(29.382324%, 52.511597%, 77.775574%)" stop-opacity="1"/>
<stop offset="0.710938" stop-color="rgb(29.23584%, 52.714539%, 77.919006%)" stop-opacity="1"/>
<stop offset="0.71875" stop-color="rgb(29.08783%, 52.919006%, 78.063965%)" stop-opacity="1"/>
<stop offset="0.726563" stop-color="rgb(28.939819%, 53.123474%, 78.207397%)" stop-opacity="1"/>
<stop offset="0.734375" stop-color="rgb(28.791809%, 53.326416%, 78.352356%)" stop-opacity="1"/>
<stop offset="0.742188" stop-color="rgb(28.643799%, 53.530884%, 78.495789%)" stop-opacity="1"/>
<stop offset="0.75" stop-color="rgb(28.497314%, 53.735352%, 78.640747%)" stop-opacity="1"/>
<stop offset="0.757813" stop-color="rgb(28.349304%, 53.938293%, 78.78418%)" stop-opacity="1"/>
<stop offset="0.765625" stop-color="rgb(28.201294%, 54.142761%, 78.929138%)" stop-opacity="1"/>
<stop offset="0.773438" stop-color="rgb(28.053284%, 54.347229%, 79.072571%)" stop-opacity="1"/>
<stop offset="0.78125" stop-color="rgb(27.906799%, 54.550171%, 79.217529%)" stop-opacity="1"/>
<stop offset="0.789063" stop-color="rgb(27.758789%, 54.754639%, 79.360962%)" stop-opacity="1"/>
<stop offset="0.796875" stop-color="rgb(27.610779%, 54.959106%, 79.50592%)" stop-opacity="1"/>
<stop offset="0.804688" stop-color="rgb(27.462769%, 55.162048%, 79.649353%)" stop-opacity="1"/>
<stop offset="0.8125" stop-color="rgb(27.314758%, 55.366516%, 79.794312%)" stop-opacity="1"/>
<stop offset="0.820313" stop-color="rgb(27.168274%, 55.569458%, 79.937744%)" stop-opacity="1"/>
<stop offset="0.828125" stop-color="rgb(27.020264%, 55.773926%, 80.082703%)" stop-opacity="1"/>
<stop offset="0.835938" stop-color="rgb(26.872253%, 55.978394%, 80.226135%)" stop-opacity="1"/>
<stop offset="0.84375" stop-color="rgb(26.724243%, 56.181335%, 80.369568%)" stop-opacity="1"/>
<stop offset="0.851563" stop-color="rgb(26.577759%, 56.385803%, 80.514526%)" stop-opacity="1"/>
<stop offset="0.859375" stop-color="rgb(26.429749%, 56.590271%, 80.657959%)" stop-opacity="1"/>
<stop offset="0.867188" stop-color="rgb(26.281738%, 56.793213%, 80.802917%)" stop-opacity="1"/>
<stop offset="0.875" stop-color="rgb(26.133728%, 56.997681%, 80.94635%)" stop-opacity="1"/>
<stop offset="0.882812" stop-color="rgb(25.987244%, 57.202148%, 81.091309%)" stop-opacity="1"/>
<stop offset="0.890625" stop-color="rgb(25.839233%, 57.40509%, 81.234741%)" stop-opacity="1"/>
<stop offset="0.898438" stop-color="rgb(25.691223%, 57.609558%, 81.3797%)" stop-opacity="1"/>
<stop offset="0.90625" stop-color="rgb(25.543213%, 57.8125%, 81.523132%)" stop-opacity="1"/>
<stop offset="0.914062" stop-color="rgb(25.395203%, 58.016968%, 81.668091%)" stop-opacity="1"/>
<stop offset="0.921875" stop-color="rgb(25.248718%, 58.221436%, 81.811523%)" stop-opacity="1"/>
<stop offset="0.9375" stop-color="rgb(25.135803%, 58.377075%, 81.921387%)" stop-opacity="1"/>
<stop offset="1" stop-color="rgb(25.097656%, 58.430481%, 81.959534%)" stop-opacity="1"/>
</linearGradient>
<clipPath id="clip-2">
<path clip-rule="nonzero" d="M 155 170 L 2500 170 L 2500 3209 L 155 3209 Z M 155 170 "/>
</clipPath>
<clipPath id="clip-3">
<path clip-rule="evenodd" d="M 836.789062 1711.238281 C 710.6875 1710.890625 591.378906 1710.550781 472.1875 1616.839844 C 384.894531 1904.96875 465.671875 2101.78125 601.78125 2391.011719 C 615.570312 2420.320312 593.53125 2453.679688 562.039062 2453.679688 C 545.558594 2453.679688 529.707031 2444.328125 522.234375 2428.378906 C 387.53125 2141.71875 272.175781 1890.710938 410.894531 1523.78125 C 422.28125 1493.671875 461.3125 1485.621094 483.652344 1508.78125 C 599.429688 1628.878906 710.046875 1622.378906 864.578125 1623.390625 C 835.515625 1145.910156 855.464844 751.78125 1255.691406 416.800781 C 1299.929688 379.820312 1356.359375 447.238281 1312.128906 484.25 C 929.609375 804.398438 922.964844 1175.671875 955.351562 1665.191406 C 959.367188 1726.261719 880.679688 1711.339844 836.789062 1711.238281 Z M 1443.738281 1376.589844 C 1407.339844 1806.078125 1613.730469 2365.109375 1694.371094 2390.378906 C 1701.621094 2383.449219 1735.019531 2341.050781 1746.398438 2136.101562 C 1749.160156 2086.621094 1819.910156 2079.210938 1832.808594 2127.171875 C 1993.921875 2726.808594 1890.378906 3038.558594 1760.5 3190.820312 C 2087.289062 3056.859375 2345.140625 2756.960938 2500 2321.828125 C 2314.039062 2433.53125 2221.460938 2346.539062 2251.269531 2293.828125 C 2566.058594 1736.921875 2025.78125 1568.210938 2091.339844 1150.398438 C 2040.359375 1173.960938 1965.351562 1230.28125 1901.050781 1364.699219 C 1880.851562 1406.808594 1817.078125 1392.21875 1817.371094 1345.488281 C 1820.679688 810.238281 1329.070312 707.871094 1437.648438 170.539062 C 1230.199219 270.398438 691.660156 613.480469 748 1465.558594 C 754.183594 1559.710938 544.875 1522.761719 445.09375 1232.539062 C 335.605469 1385.699219 108.03125 1796.699219 351.628906 2314.449219 C 381.976562 2378.949219 259.648438 2420.320312 155.585938 2356.421875 C 234.511719 2740.441406 565.152344 3074.621094 970.546875 3208.101562 C 669.53125 2978.328125 523.21875 2532.261719 861.398438 2043.910156 C 887.308594 2006.480469 946.550781 2028.890625 941.234375 2074.089844 C 922.570312 2232.890625 953.433594 2323.171875 1009.671875 2356.101562 C 945.027344 1703.121094 1353.78125 1354.050781 1371.769531 1339.078125 C 1401.640625 1314.199219 1447.050781 1337.859375 1443.738281 1376.589844 "/>
</clipPath>
<linearGradient id="linear-pattern-1" gradientUnits="userSpaceOnUse" x1="-0.0415011" y1="0" x2="1.057743" y2="0" gradientTransform="matrix(2236.11, 0, 0, 2236.11, 200.831, 1689.32)">
<stop offset="0" stop-color="rgb(41.567993%, 35.68573%, 65.881348%)" stop-opacity="1"/>
<stop offset="0.03125" stop-color="rgb(41.567993%, 35.68573%, 65.881348%)" stop-opacity="1"/>
<stop offset="0.046875" stop-color="rgb(41.485596%, 35.798645%, 65.962219%)" stop-opacity="1"/>
<stop offset="0.0625" stop-color="rgb(41.261292%, 36.108398%, 66.18042%)" stop-opacity="1"/>
<stop offset="0.078125" stop-color="rgb(40.977478%, 36.499023%, 66.456604%)" stop-opacity="1"/>
<stop offset="0.09375" stop-color="rgb(40.69519%, 36.889648%, 66.732788%)" stop-opacity="1"/>
<stop offset="0.109375" stop-color="rgb(40.411377%, 37.280273%, 67.008972%)" stop-opacity="1"/>
<stop offset="0.125" stop-color="rgb(40.129089%, 37.670898%, 67.285156%)" stop-opacity="1"/>
<stop offset="0.140625" stop-color="rgb(39.846802%, 38.061523%, 67.56134%)" stop-opacity="1"/>
<stop offset="0.15625" stop-color="rgb(39.562988%, 38.452148%, 67.837524%)" stop-opacity="1"/>
<stop offset="0.164062" stop-color="rgb(39.350891%, 38.745117%, 68.045044%)" stop-opacity="1"/>
<stop offset="0.171875" stop-color="rgb(39.208984%, 38.941956%, 68.182373%)" stop-opacity="1"/>
<stop offset="0.1875" stop-color="rgb(38.996887%, 39.234924%, 68.389893%)" stop-opacity="1"/>
<stop offset="0.203125" stop-color="rgb(38.7146%, 39.625549%, 68.666077%)" stop-opacity="1"/>
<stop offset="0.21875" stop-color="rgb(38.432312%, 40.016174%, 68.942261%)" stop-opacity="1"/>
<stop offset="0.234375" stop-color="rgb(38.148499%, 40.406799%, 69.218445%)" stop-opacity="1"/>
<stop offset="0.25" stop-color="rgb(37.866211%, 40.797424%, 69.494629%)" stop-opacity="1"/>
<stop offset="0.265625" stop-color="rgb(37.583923%, 41.188049%, 69.770813%)" stop-opacity="1"/>
<stop offset="0.28125" stop-color="rgb(37.30011%, 41.578674%, 70.046997%)" stop-opacity="1"/>
<stop offset="0.296875" stop-color="rgb(37.017822%, 41.969299%, 70.323181%)" stop-opacity="1"/>
<stop offset="0.3125" stop-color="rgb(36.734009%, 42.359924%, 70.599365%)" stop-opacity="1"/>
<stop offset="0.328125" stop-color="rgb(36.451721%, 42.750549%, 70.875549%)" stop-opacity="1"/>
<stop offset="0.34375" stop-color="rgb(36.169434%, 43.141174%, 71.151733%)" stop-opacity="1"/>
<stop offset="0.359375" stop-color="rgb(35.88562%, 43.531799%, 71.427917%)" stop-opacity="1"/>
<stop offset="0.375" stop-color="rgb(35.603333%, 43.922424%, 71.702576%)" stop-opacity="1"/>
<stop offset="0.390625" stop-color="rgb(35.319519%, 44.313049%, 71.97876%)" stop-opacity="1"/>
<stop offset="0.40625" stop-color="rgb(35.037231%, 44.703674%, 72.254944%)" stop-opacity="1"/>
<stop offset="0.421875" stop-color="rgb(34.754944%, 45.094299%, 72.531128%)" stop-opacity="1"/>
<stop offset="0.4375" stop-color="rgb(34.47113%, 45.484924%, 72.807312%)" stop-opacity="1"/>
<stop offset="0.453125" stop-color="rgb(34.188843%, 45.875549%, 73.083496%)" stop-opacity="1"/>
<stop offset="0.46875" stop-color="rgb(33.905029%, 46.266174%, 73.35968%)" stop-opacity="1"/>
<stop offset="0.484375" stop-color="rgb(33.622742%, 46.656799%, 73.635864%)" stop-opacity="1"/>
<stop offset="0.5" stop-color="rgb(33.340454%, 47.047424%, 73.912048%)" stop-opacity="1"/>
<stop offset="0.515625" stop-color="rgb(33.056641%, 47.438049%, 74.188232%)" stop-opacity="1"/>
<stop offset="0.53125" stop-color="rgb(32.774353%, 47.828674%, 74.464417%)" stop-opacity="1"/>
<stop offset="0.546875" stop-color="rgb(32.49054%, 48.219299%, 74.740601%)" stop-opacity="1"/>
<stop offset="0.5625" stop-color="rgb(32.208252%, 48.609924%, 75.016785%)" stop-opacity="1"/>
<stop offset="0.578125" stop-color="rgb(31.925964%, 49.000549%, 75.292969%)" stop-opacity="1"/>
<stop offset="0.59375" stop-color="rgb(31.642151%, 49.391174%, 75.569153%)" stop-opacity="1"/>
<stop offset="0.609375" stop-color="rgb(31.359863%, 49.781799%, 75.845337%)" stop-opacity="1"/>
<stop offset="0.625" stop-color="rgb(31.07605%, 50.172424%, 76.121521%)" stop-opacity="1"/>
<stop offset="0.640625" stop-color="rgb(30.793762%, 50.563049%, 76.397705%)" stop-opacity="1"/>
<stop offset="0.65625" stop-color="rgb(30.511475%, 50.953674%, 76.673889%)" stop-opacity="1"/>
<stop offset="0.671875" stop-color="rgb(30.227661%, 51.344299%, 76.950073%)" stop-opacity="1"/>
<stop offset="0.6875" stop-color="rgb(29.945374%, 51.734924%, 77.226257%)" stop-opacity="1"/>
<stop offset="0.703125" stop-color="rgb(29.66156%, 52.125549%, 77.502441%)" stop-opacity="1"/>
<stop offset="0.71875" stop-color="rgb(29.379272%, 52.516174%, 77.778625%)" stop-opacity="1"/>
<stop offset="0.734375" stop-color="rgb(29.096985%, 52.906799%, 78.05481%)" stop-opacity="1"/>
<stop offset="0.75" stop-color="rgb(28.813171%, 53.297424%, 78.330994%)" stop-opacity="1"/>
<stop offset="0.765625" stop-color="rgb(28.530884%, 53.688049%, 78.607178%)" stop-opacity="1"/>
<stop offset="0.78125" stop-color="rgb(28.24707%, 54.078674%, 78.883362%)" stop-opacity="1"/>
<stop offset="0.789062" stop-color="rgb(28.034973%, 54.371643%, 79.090881%)" stop-opacity="1"/>
<stop offset="0.796875" stop-color="rgb(27.894592%, 54.566956%, 79.229736%)" stop-opacity="1"/>
<stop offset="0.8125" stop-color="rgb(27.682495%, 54.86145%, 79.43573%)" stop-opacity="1"/>
<stop offset="0.828125" stop-color="rgb(27.398682%, 55.252075%, 79.711914%)" stop-opacity="1"/>
<stop offset="0.84375" stop-color="rgb(27.116394%, 55.6427%, 79.988098%)" stop-opacity="1"/>
<stop offset="0.859375" stop-color="rgb(26.832581%, 56.033325%, 80.264282%)" stop-opacity="1"/>
<stop offset="0.875" stop-color="rgb(26.550293%, 56.42395%, 80.540466%)" stop-opacity="1"/>
<stop offset="0.890625" stop-color="rgb(26.268005%, 56.814575%, 80.81665%)" stop-opacity="1"/>
<stop offset="0.90625" stop-color="rgb(25.984192%, 57.2052%, 81.092834%)" stop-opacity="1"/>
<stop offset="0.921875" stop-color="rgb(25.701904%, 57.595825%, 81.369019%)" stop-opacity="1"/>
<stop offset="0.9375" stop-color="rgb(25.418091%, 57.98645%, 81.645203%)" stop-opacity="1"/>
<stop offset="1" stop-color="rgb(25.187683%, 58.305359%, 81.871033%)" stop-opacity="1"/>
</linearGradient>
<clipPath id="clip-4">
<path clip-rule="nonzero" d="M 0 0 L 2576.019531 0 L 2576.019531 3306.300781 L 0 3306.300781 Z M 0 0 "/>
</clipPath>
</defs>
<g clip-path="url(#clip-0)">
<g clip-path="url(#clip-1)">
<path fill-rule="nonzero" fill="url(#linear-pattern-0)" d="M 722.507812 1486.578125 L 722.507812 3269.511719 L 1871.628906 3269.511719 L 1871.628906 1486.578125 Z M 722.507812 1486.578125 "/>
</g>
</g>
<g clip-path="url(#clip-2)">
<g clip-path="url(#clip-3)">
<path fill-rule="nonzero" fill="url(#linear-pattern-1)" d="M 108.03125 170.539062 L 108.03125 3208.101562 L 2566.058594 3208.101562 L 2566.058594 170.539062 Z M 108.03125 170.539062 "/>
</g>
</g>
<g clip-path="url(#clip-4)">
<path fill-rule="evenodd" fill="rgb(21.166992%, 4.315186%, 29.417419%)" fill-opacity="1" d="M 510.402344 2402.039062 C 541.90625 2402.039062 563.929688 2368.679688 550.128906 2339.371094 C 414.035156 2050.140625 333.242188 1853.328125 420.550781 1565.199219 C 539.742188 1658.921875 659.050781 1659.261719 785.152344 1659.601562 C 829.039062 1659.699219 907.730469 1674.621094 903.714844 1613.558594 C 871.328125 1124.03125 877.972656 752.761719 1260.488281 432.609375 C 1304.71875 395.601562 1248.289062 328.179688 1204.058594 365.160156 C 803.824219 700.140625 783.878906 1094.28125 812.941406 1571.75 C 658.40625 1570.738281 547.789062 1577.238281 432.015625 1457.148438 C 409.675781 1433.980469 370.644531 1442.03125 359.257812 1472.140625 C 220.539062 1839.070312 335.894531 2090.089844 470.597656 2376.75 C 478.070312 2392.691406 493.921875 2402.039062 510.402344 2402.039062 Z M 1329.359375 3217.871094 C 1448.808594 3214.660156 1560.570312 3189 1655.308594 3065.578125 C 1742.039062 2952.589844 1819.988281 2735.238281 1747.238281 2325.058594 C 1708.261719 2442.730469 1626.808594 2455.960938 1558.441406 2381.5 C 1437.601562 2249.960938 1304.21875 1791.191406 1300.488281 1434.941406 C 1185.160156 1573.261719 986.003906 1887.949219 1052.890625 2356.078125 C 1063.238281 2428.648438 938.042969 2422.160156 865.941406 2341.109375 C 830.773438 2301.578125 808.84375 2247.148438 800.304688 2178.578125 C 679.5625 2415.800781 670.882812 2652.53125 778.179688 2857.351562 C 888.046875 3067.03125 1113.691406 3214.21875 1329.359375 3217.871094 Z M 918.90625 3156.460938 C 617.894531 2926.691406 471.582031 2480.628906 809.761719 1992.28125 C 835.671875 1954.871094 894.914062 1977.25 889.59375 2022.449219 C 870.933594 2181.25 901.796875 2271.53125 958.03125 2304.460938 C 893.390625 1651.5 1302.148438 1302.421875 1320.140625 1287.441406 C 1350 1262.558594 1395.410156 1286.21875 1392.101562 1324.949219 C 1355.699219 1754.441406 1562.089844 2313.46875 1642.730469 2338.738281 C 1649.980469 2331.808594 1683.390625 2289.421875 1694.761719 2084.46875 C 1697.519531 2034.980469 1768.28125 2027.578125 1781.171875 2075.539062 C 1942.28125 2675.171875 1838.75 2986.921875 1708.859375 3139.179688 C 2035.660156 3005.21875 2293.5 2705.328125 2448.371094 2270.191406 C 2262.410156 2381.898438 2169.820312 2294.898438 2199.628906 2242.191406 C 2514.421875 1685.289062 1974.140625 1516.570312 2039.699219 1098.769531 C 1988.71875 1122.328125 1913.710938 1178.640625 1849.410156 1313.070312 C 1829.210938 1355.171875 1765.441406 1340.578125 1765.730469 1293.851562 C 1769.039062 758.601562 1277.421875 656.230469 1386.011719 118.898438 C 1178.570312 218.761719 640.023438 561.839844 696.359375 1413.929688 C 702.546875 1508.070312 493.238281 1471.121094 393.457031 1180.898438 C 283.96875 1334.070312 56.394531 1745.070312 299.992188 2262.808594 C 330.339844 2327.320312 208.011719 2368.679688 103.945312 2304.78125 C 182.875 2688.808594 513.515625 3022.980469 918.90625 3156.460938 Z M 1337.550781 3305.910156 L 1297.628906 3306.300781 C 634.097656 3306.300781 39.925781 2796 0.105469 2191.941406 C -2.742188 2148.839844 52.375 2127.960938 78.808594 2162.191406 C 126.691406 2224.21875 167.980469 2243.820312 197.175781 2247.96875 C -85.335938 1573.089844 374.664062 1062.421875 379.457031 1057.199219 C 403.109375 1031.5 446.132812 1042.640625 454.484375 1076.488281 C 497.28125 1250.101562 561.394531 1322.171875 605.261719 1351.980469 C 572.703125 307.230469 1427.429688 5.371094 1436.230469 2.371094 C 1469.878906 -9.070312 1502.710938 22.769531 1492.441406 56.738281 C 1337.5 569.148438 1771.558594 682.921875 1843.660156 1153.019531 C 1945.988281 1018.949219 2099.058594 962.539062 2134.988281 1011.960938 C 2143.210938 1023.320312 2145.578125 1037.949219 2141.269531 1051.328125 C 2013.308594 1447.71875 2600.519531 1642.910156 2302.28125 2236.460938 C 2362.820312 2228.609375 2455.539062 2163.578125 2502.660156 2121.609375 C 2535.460938 2092.421875 2586.488281 2124.628906 2574.121094 2166.78125 C 2374.949219 2847.128906 1952.238281 3254.851562 1404.949219 3301.730469 C 1382.941406 3304.488281 1360.449219 3305.910156 1337.550781 3305.910156 "/>
</g>
</svg>
