<?xml version="1.0" encoding="UTF-8"?>
<svg version="1.1" xmlns="http://www.w3.org/2000/svg" width="500" height="500">
<path d="M0 0 C0.72365753 -0.00100708 1.44731506 -0.00201416 2.19290161 -0.00305176 C21.64907402 0.01513983 40.52901369 2.38252291 59.375 7.25 C60.04450684 7.41693359 60.71401367 7.58386719 61.40380859 7.75585938 C109.13605688 19.83645749 153.37313385 50.66637187 182.375 90.25 C183.07625 91.1678125 183.7775 92.085625 184.5 93.03125 C219.38502035 139.36291766 233.19291635 200.34028601 225.8125 257.4375 C221.97293763 284.6710304 213.33824773 310.06045202 200.375 334.25 C200.05563477 334.85005859 199.73626953 335.45011719 199.40722656 336.06835938 C191.68885439 350.43941984 182.06255445 362.98586532 171.375 375.25 C170.77171875 375.96542969 170.1684375 376.68085938 169.546875 377.41796875 C161.09061553 387.37254604 151.68623999 396.24964784 141.375 404.25 C140.47652344 404.96542969 139.57804687 405.68085938 138.65234375 406.41796875 C117.83870595 422.59362949 93.489678 434.8618265 68.34667969 442.63671875 C67.03710091 443.04405677 65.73037129 443.46067565 64.42675781 443.88671875 C14.02093199 460.28289669 -45.12356237 454.65382858 -92.625 432.25 C-93.30385254 431.93595215 -93.98270508 431.6219043 -94.68212891 431.29833984 C-110.81023318 423.78848468 -125.86264151 414.5228618 -139.625 403.25 C-140.14336426 402.83314941 -140.66172852 402.41629883 -141.19580078 401.98681641 C-154.30815711 391.42844899 -166.3704282 379.620384 -176.625 366.25 C-177.3365625 365.35539062 -178.048125 364.46078125 -178.78125 363.5390625 C-215.4914991 316.35863672 -230.39953107 255.2619581 -223.59228516 196.2590332 C-220.05066451 170.137268 -211.68201117 145.33649514 -199.54492188 122.02050781 C-198.75288167 120.49612471 -197.97647384 118.96363766 -197.203125 117.4296875 C-182.50208831 89.15181104 -160.26162496 64.03326977 -134.625 45.25 C-133.7071875 44.54875 -132.789375 43.8475 -131.84375 43.125 C-101.17306336 20.03177712 -63.55088657 6.03001798 -25.625 1.25 C-24.88862305 1.15428711 -24.15224609 1.05857422 -23.39355469 0.95996094 C-15.61569665 0.05841445 -7.8202138 0.00758887 0 0 Z " fill="#4C1D94" transform="translate(248.625,23.75)"/>
<path d="M0 0 C0.72365753 -0.00100708 1.44731506 -0.00201416 2.19290161 -0.00305176 C21.64907402 0.01513983 40.52901369 2.38252291 59.375 7.25 C60.04450684 7.41693359 60.71401367 7.58386719 61.40380859 7.75585938 C109.13605688 19.83645749 153.37313385 50.66637187 182.375 90.25 C183.07625 91.1678125 183.7775 92.085625 184.5 93.03125 C219.38502035 139.36291766 233.19291635 200.34028601 225.8125 257.4375 C221.97293763 284.6710304 213.33824773 310.06045202 200.375 334.25 C200.05563477 334.85005859 199.73626953 335.45011719 199.40722656 336.06835938 C191.68885439 350.43941984 182.06255445 362.98586532 171.375 375.25 C170.77171875 375.96542969 170.1684375 376.68085938 169.546875 377.41796875 C161.09061553 387.37254604 151.68623999 396.24964784 141.375 404.25 C140.47652344 404.96542969 139.57804687 405.68085938 138.65234375 406.41796875 C117.83870595 422.59362949 93.489678 434.8618265 68.34667969 442.63671875 C67.03710091 443.04405677 65.73037129 443.46067565 64.42675781 443.88671875 C14.02093199 460.28289669 -45.12356237 454.65382858 -92.625 432.25 C-93.30385254 431.93595215 -93.98270508 431.6219043 -94.68212891 431.29833984 C-110.81023318 423.78848468 -125.86264151 414.5228618 -139.625 403.25 C-140.14336426 402.83314941 -140.66172852 402.41629883 -141.19580078 401.98681641 C-154.30815711 391.42844899 -166.3704282 379.620384 -176.625 366.25 C-177.3365625 365.35539062 -178.048125 364.46078125 -178.78125 363.5390625 C-215.4914991 316.35863672 -230.39953107 255.2619581 -223.59228516 196.2590332 C-220.05066451 170.137268 -211.68201117 145.33649514 -199.54492188 122.02050781 C-198.75288167 120.49612471 -197.97647384 118.96363766 -197.203125 117.4296875 C-182.50208831 89.15181104 -160.26162496 64.03326977 -134.625 45.25 C-133.7071875 44.54875 -132.789375 43.8475 -131.84375 43.125 C-101.17306336 20.03177712 -63.55088657 6.03001798 -25.625 1.25 C-24.88862305 1.15428711 -24.15224609 1.05857422 -23.39355469 0.95996094 C-15.61569665 0.05841445 -7.8202138 0.00758887 0 0 Z M-56.625 22.25 C-57.33817383 22.46527344 -58.05134766 22.68054688 -58.78613281 22.90234375 C-89.23085097 32.24558625 -116.90944016 47.53479745 -140.36328125 69.17578125 C-142.40824667 71.05121586 -144.50119475 72.84032533 -146.625 74.625 C-155.86053347 82.7107281 -163.34650166 92.43019546 -170.625 102.25 C-171.24117187 103.06984375 -171.85734375 103.8896875 -172.4921875 104.734375 C-177.90264287 112.16440127 -182.27652894 120.17045692 -186.625 128.25 C-186.97208008 128.88679688 -187.31916016 129.52359375 -187.67675781 130.1796875 C-195.76499969 145.13091506 -201.6667888 161.00314469 -205.5 177.5625 C-205.69102295 178.38379395 -205.8820459 179.20508789 -206.07885742 180.05126953 C-209.37748339 195.36706667 -210.03247606 210.69924667 -210 226.3125 C-209.99978851 227.25577148 -209.99957703 228.19904297 -209.99935913 229.17089844 C-209.96643641 243.9152846 -209.08573773 257.86390946 -205.625 272.25 C-205.44308105 273.06645996 -205.26116211 273.88291992 -205.07373047 274.72412109 C-198.89420676 302.36354572 -186.70056527 327.69233734 -170.03759766 350.49462891 C-168.28543042 352.89407563 -166.61844011 355.26149278 -165.14453125 357.84375 C-163.30174067 360.76189653 -161.10517419 362.84733125 -158.625 365.25 C-157.51348654 366.44372197 -156.4098723 367.64482793 -155.3125 368.8515625 C-144.83412399 380.3136634 -133.78768403 390.08648907 -121.28125 399.27734375 C-119.48839275 400.60880391 -117.72654523 401.98291481 -115.99609375 403.39453125 C-113.5070792 405.3422774 -110.93939677 406.64228792 -108.09375 407.99609375 C-105.03802214 409.54813274 -102.13256555 411.30964562 -99.1875 413.0625 C-91.94606385 417.29275329 -84.39930357 420.45115882 -76.59130859 423.47705078 C-74.84731818 424.16260748 -73.11949319 424.88897568 -71.39453125 425.62109375 C-61.45831083 429.74726032 -51.13123163 432.08441808 -40.625 434.25 C-39.83754395 434.41806152 -39.05008789 434.58612305 -38.23876953 434.75927734 C11.60259675 444.98178924 68.6280131 434.71475887 111.375 407.25 C112.25285156 406.70730469 113.13070313 406.16460937 114.03515625 405.60546875 C123.76320085 399.5442539 132.88726801 392.95424903 141.375 385.25 C142.1896875 384.5384375 143.004375 383.826875 143.84375 383.09375 C148.42244504 379.06670497 152.6845449 374.99183212 156.609375 370.32421875 C158.56790151 368.02338341 160.62618556 365.834066 162.6875 363.625 C167.70149402 358.06526513 171.97563221 352.09078278 176.20800781 345.93017578 C177.24674342 344.43465728 178.32029142 342.96345473 179.3984375 341.49609375 C194.59186984 320.19428147 204.14176044 293.69281264 209.375 268.25 C209.60960937 267.16976562 209.84421875 266.08953125 210.0859375 264.9765625 C212.48509244 253.11986923 212.54682469 240.92751333 212.5 228.875 C212.49661621 227.60712646 212.49323242 226.33925293 212.48974609 225.03295898 C212.18521651 169.76792203 191.58683727 117.63012841 152.375 78.25 C150.32228805 76.37534653 148.25668917 74.55802986 146.09375 72.8125 C144.375 71.25 144.375 71.25 142.65625 68.95703125 C139.62793601 65.36350112 136.12496593 62.74397682 132.375 59.9375 C131.61751465 59.36572021 130.8600293 58.79394043 130.07958984 58.20483398 C120.59594972 51.09762581 110.91604185 44.69848657 100.375 39.25 C98.63863281 38.32574219 98.63863281 38.32574219 96.8671875 37.3828125 C79.16549559 28.10300056 60.99044063 21.9759589 41.375 18.25 C40.57819824 18.08628906 39.78139648 17.92257813 38.96044922 17.75390625 C8.50762641 11.60105038 -26.9638315 13.23229751 -56.625 22.25 Z " fill="#020007" transform="translate(248.625,23.75)"/>
<path d="M0 0 C53.13 0 106.26 0 161 0 C163.25 14.625 163.25 14.625 163.6328125 20.39453125 C163.71660156 21.61591797 163.80039062 22.83730469 163.88671875 24.09570312 C163.96535156 25.32224609 164.04398438 26.54878906 164.125 27.8125 C164.21136719 29.08931641 164.29773438 30.36613281 164.38671875 31.68164062 C164.59610021 34.78746564 164.80045192 37.89353041 165 41 C162.69 41 160.38 41 158 41 C157.5153125 40.11699219 157.030625 39.23398438 156.53125 38.32421875 C148.67615808 22.91232659 148.67615808 22.91232659 136 12 C131.52457702 10.81564465 127.01860576 10.78172498 122.41796875 10.68359375 C121.19670036 10.6524221 121.19670036 10.6524221 119.95075989 10.62062073 C117.36308821 10.55550537 114.77531947 10.49641792 112.1875 10.4375 C110.42772455 10.39427858 108.66795872 10.35066315 106.90820312 10.30664062 C102.60556691 10.1998632 98.30283357 10.09848982 94 10 C94.0605976 26.81184621 94.13814193 43.62351806 94.23571491 60.43518829 C94.28062981 68.24160917 94.32005433 76.04798486 94.34643555 83.85449219 C94.36945059 90.66074988 94.40288758 97.46686407 94.44870156 104.27300787 C94.47258672 107.87492323 94.49134622 111.47669689 94.49761391 115.07868958 C94.50481629 119.10539903 94.53529183 123.131617 94.56762695 127.15820312 C94.56619186 128.34503693 94.56475677 129.53187073 94.5632782 130.75466919 C94.65112115 138.49522042 95.32925774 144.46519407 100.125 150.8125 C106.70920846 155.82222383 115.00301524 156.72945102 123 158 C123.04254356 159.99954746 123.04080783 162.00041636 123 164 C121.24560837 165.75439163 118.94502544 165.11982963 116.60829163 165.12442017 C115.8357756 165.12082489 115.06325958 165.11722961 114.26733398 165.11352539 C113.05279541 165.11374443 113.05279541 165.11374443 111.8137207 165.1139679 C109.12448492 165.11326854 106.43531751 165.1054751 103.74609375 165.09765625 C101.88664284 165.09579215 100.02719144 165.09436821 98.16773987 165.09336853 C93.26370904 165.08954271 88.35970764 165.07971188 83.45568848 165.06866455 C78.45548908 165.05845181 73.45528494 165.05387121 68.45507812 165.04882812 C58.63670579 165.03808967 48.81835534 165.02101248 39 165 C39 162.69 39 160.38 39 158 C40.6396875 157.38125 40.6396875 157.38125 42.3125 156.75 C43.03695312 156.47414063 43.76140625 156.19828125 44.5078125 155.9140625 C46.26140975 155.2708936 48.02879565 154.66471005 49.8046875 154.0859375 C57.59601845 151.48882718 62.12615613 148.43890137 66 141 C66.45209777 138.30643222 66.45209777 138.30643222 66.39872742 135.42546082 C66.41753464 133.76176956 66.41753464 133.76176956 66.4367218 132.06446838 C66.43456917 130.25401283 66.43456917 130.25401283 66.43237305 128.40698242 C66.4425647 127.12853455 66.45275635 125.85008667 66.46325684 124.53289795 C66.49080423 121.03534898 66.5001082 117.5379626 66.50611091 114.0403192 C66.51550053 110.38206414 66.54170437 106.72393023 66.56611633 103.06575012 C66.60976892 96.14211909 66.63832345 89.21851158 66.66143972 82.29478484 C66.68849808 74.41083138 66.73240917 66.52699987 66.77772844 58.64313352 C66.87055692 42.42881752 66.94224582 26.21447967 67 10 C62.60715832 10.09440369 58.21480225 10.20067592 53.82250977 10.31738281 C52.33202727 10.3553815 50.84146211 10.39028196 49.35083008 10.421875 C33.68115659 10.33551015 33.68115659 10.33551015 20 17 C14.75347183 22.94881934 10.67976956 29.99776349 6.9453125 36.96875 C6 38.625 6 38.625 4 41 C0.875 41.1484375 0.875 41.1484375 -2 41 C-2.02760015 39.18759041 -2.04665998 37.37505052 -2.0625 35.5625 C-2.07410156 34.55316406 -2.08570312 33.54382813 -2.09765625 32.50390625 C-1.98109066 28.32153275 -1.46204524 24.15840713 -1 20 C-0.67 13.4 -0.34 6.8 0 0 Z " fill="#FCFAFD" transform="translate(115,125)"/>
<path d="M0 0 C1.12758089 3.38274266 0.81750262 4.76778223 0.0625 8.1875 C-0.13214844 9.08855469 -0.32679688 9.98960937 -0.52734375 10.91796875 C-0.76130859 11.94857422 -0.76130859 11.94857422 -1 13 C-5.29937077 11.64230397 -9.3352455 9.9901004 -13.4375 8.125 C-30.32037596 0.80766464 -47.97551685 -2.29053129 -65.83984375 3.6015625 C-79.87600812 9.81286886 -87.9442237 21.3448192 -93.75 35.125 C-98.25388224 47.67905237 -98.38436926 61.23104393 -98.3125 74.4375 C-98.31034485 75.15612213 -98.3081897 75.87474426 -98.30596924 76.61514282 C-98.20156881 98.3530621 -95.16837798 117.67660694 -79.21484375 133.8046875 C-75.23439109 137.44965782 -70.99925646 139.99137017 -66 142 C-65.2575 142.30035156 -64.515 142.60070312 -63.75 142.91015625 C-50.97873269 147.20050386 -35.1676476 146.73590806 -23 141 C-22.21753906 140.63777344 -21.43507813 140.27554688 -20.62890625 139.90234375 C-12.21617838 135.60120905 -4.67014121 129.56018828 1 122 C5.20626034 123.50223584 6.73900021 126.28550034 9 130 C4.10104391 136.24311411 -0.61279884 142.23761317 -7 147 C-7.6290625 147.50015625 -8.258125 148.0003125 -8.90625 148.515625 C-15.61047416 153.46874583 -23.09294358 155.68955627 -31 158 C-31.61254639 158.18103271 -32.22509277 158.36206543 -32.85620117 158.54858398 C-37.63574245 159.55500373 -42.63580943 159.22823628 -47.5 159.25 C-48.62148438 159.270625 -49.74296875 159.29125 -50.8984375 159.3125 C-66.80357611 159.38596484 -80.44427711 154.64024147 -93 145 C-93.61617188 144.55011719 -94.23234375 144.10023438 -94.8671875 143.63671875 C-109.81014886 131.96468211 -116.57804973 112.70106877 -119.55859375 94.609375 C-120.25528598 88.71871727 -120.18600957 82.78992265 -120.18530273 76.8659668 C-120.18747672 74.83425532 -120.20564993 72.80309939 -120.22460938 70.77148438 C-120.33296977 46.28706137 -113.73424306 23.42213878 -96.6875 5.375 C-70.19090157 -20.17529134 -30.16261736 -17.88800384 0 0 Z " fill="#FBF8FC" transform="translate(369,256)"/>
<path d="M0 0 C10.23 0 20.46 0 31 0 C31 0.66 31 1.32 31 2 C21.43 2 11.86 2 2 2 C2 45.23 2 88.46 2 133 C-0.23038647 129.6544203 -0.24803483 128.60605829 -0.24050903 124.70393372 C-0.24325836 123.6059697 -0.24600769 122.50800568 -0.24884033 121.37677002 C-0.24164978 120.17195984 -0.23445923 118.96714966 -0.22705078 117.72583008 C-0.22734283 116.45742783 -0.22763489 115.18902557 -0.22793579 113.88218689 C-0.22851023 110.40308013 -0.21674122 106.92411093 -0.20278788 103.44503617 C-0.19029571 99.80953049 -0.18911121 96.17402175 -0.18673706 92.53849792 C-0.18051783 85.65370333 -0.16410104 78.76897217 -0.14403808 71.88420552 C-0.12169284 64.04632544 -0.11068912 56.20844235 -0.10064721 48.37053835 C-0.07973518 32.24698257 -0.04305344 16.12351417 0 0 Z " fill="#5D3F90" transform="translate(209,135)"/>
<path d="M0 0 C0.33 0 0.66 0 1 0 C5.50766137 25.11411333 5.70598691 55.28928354 -1 80 C-1.33 80 -1.66 80 -2 80 C-1.85919445 77.22882696 -1.71256882 74.45817359 -1.5625 71.6875 C-1.50352539 70.50897461 -1.50352539 70.50897461 -1.44335938 69.30664062 C-1.40146484 68.54931641 -1.35957031 67.79199219 -1.31640625 67.01171875 C-1.27974854 66.31522217 -1.24309082 65.61872559 -1.20532227 64.90112305 C-1 63 -1 63 0 60 C0.14575061 58.63521278 0.24664871 57.26530522 0.31640625 55.89453125 C0.35846191 55.08467773 0.40051758 54.27482422 0.44384766 53.44042969 C0.48300293 52.57321289 0.5221582 51.70599609 0.5625 50.8125 C0.6042334 49.91047852 0.6459668 49.00845703 0.68896484 48.07910156 C1.38461361 32.01387423 0.7560123 16.05319729 0 0 Z " fill="#43217A" transform="translate(458,216)"/>
<path d="M0 0 C0.66 0.66 1.32 1.32 2 2 C1.583648 3.8255434 1.15951691 5.65283466 0.60546875 7.44140625 C-1.48645129 16.28145545 -1.30089908 25.52605689 -1.5625 34.5625 C-1.60579176 35.96680703 -1.64940904 37.37110406 -1.69335938 38.77539062 C-1.79876511 42.18350951 -1.90088982 45.5916932 -2 49 C-2.66 48.67 -3.32 48.34 -4 48 C-4.05017623 43.94730482 -4.08607843 39.89473481 -4.10986328 35.84179688 C-4.11979919 34.46871788 -4.13335261 33.09565933 -4.15087891 31.72265625 C-4.28551334 20.88854455 -3.9743948 10.21987234 0 0 Z " fill="#5D3D93" transform="translate(251,296)"/>
<path d="M0 0 C3.38852583 3.38852583 4.88900415 7.73711682 5.12109375 12.46875 C5.08190445 14.16172782 5.03235672 15.85449634 4.97265625 17.546875 C4.99968938 19.9721327 5.35541068 21.92058758 6 24.25 C6.92294251 27.71103443 7.1776382 30.44723598 7 34 C4.96399001 30.40274468 3.9400893 26.60491808 2.9375 22.625 C2.7612207 21.92761719 2.58494141 21.23023438 2.40332031 20.51171875 C0.77440386 13.70044616 0.21884019 7.00288609 0 0 Z " fill="#452081" transform="translate(41,278)"/>
<path d="M0 0 C1.13598633 0.00483398 1.13598633 0.00483398 2.29492188 0.00976562 C3.47344727 0.02233398 3.47344727 0.02233398 4.67578125 0.03515625 C5.47306641 0.03966797 6.27035156 0.04417969 7.09179688 0.04882812 C9.05732382 0.06059775 11.0228121 0.07853277 12.98828125 0.09765625 C12.98828125 0.42765625 12.98828125 0.75765625 12.98828125 1.09765625 C1.42324351 2.85539931 -9.82550262 3.35193395 -21.51171875 3.22265625 C-23.12499433 3.21258749 -24.73827612 3.20346865 -26.3515625 3.1953125 C-30.2384398 3.17365078 -34.12500682 3.1393454 -38.01171875 3.09765625 C-38.01171875 2.76765625 -38.01171875 2.43765625 -38.01171875 2.09765625 C-37.08834717 2.0726001 -36.16497559 2.04754395 -35.21362305 2.02172852 C-31.78625459 1.9265658 -28.35905414 1.82733411 -24.93188477 1.7253418 C-23.4488586 1.68204295 -21.96578421 1.64036426 -20.48266602 1.6003418 C-18.35027536 1.54251667 -16.21812633 1.47885793 -14.0859375 1.4140625 C-12.80291748 1.37740479 -11.51989746 1.34074707 -10.19799805 1.30297852 C-6.62833578 1.07295124 -3.59663593 -0.02704238 0 0 Z " fill="#08001B" transform="translate(271.01171875,472.90234375)"/>
<path d="M0 0 C-19.84711669 10.25973912 -19.84711669 10.25973912 -27 12 C-27.66 11.67 -28.32 11.34 -29 11 C-23.18602687 7.34550261 -17.62773772 5.57268353 -11 4 C-11 3.34 -11 2.68 -11 2 C-9.35 2 -7.7 2 -6 2 C-6 1.34 -6 0.68 -6 0 C-2.25 -1.125 -2.25 -1.125 0 0 Z " fill="#07001B" transform="translate(354,451)"/>
<path d="M0 0 C0.66 0 1.32 0 2 0 C2.433125 1.2065625 2.433125 1.2065625 2.875 2.4375 C3.73262568 5.1326468 3.73262568 5.1326468 6 6 C6.80584656 8.26256917 7.40518709 10.55079252 8.0234375 12.87109375 C9.24572438 15.53567914 10.40757044 15.80706926 13 17 C13.33 17.99 13.66 18.98 14 20 C13.34 20.66 12.68 21.32 12 22 C10.36702257 19.46316052 8.74356724 16.92101073 7.125 14.375 C6.66480469 13.66214844 6.20460938 12.94929688 5.73046875 12.21484375 C3.21097367 8.23477182 1.25937436 4.58875487 0 0 Z " fill="#421F7F" transform="translate(62,346)"/>
<path d="M0 0 C1.28835769 3.86507308 0.56002478 5.2856553 -1 9 C-2.31321858 10.6825613 -3.64613064 12.34997172 -5 14 C-6.24016669 16.6794645 -6.24016669 16.6794645 -7 19 C-7.99 19 -8.98 19 -10 19 C-8.62394084 14.23448987 -6.53221934 10.2751447 -3.875 6.125 C-3.50246094 5.53203125 -3.12992188 4.9390625 -2.74609375 4.328125 C-1.83635 2.8818657 -0.91896202 1.44041954 0 0 Z " fill="#070015" transform="translate(61,125)"/>
<path d="M0 0 C0.99 0.495 0.99 0.495 2 1 C2.23819659 3.07571311 2.46714944 5.15291946 2.6484375 7.234375 C3.2870877 12.2584232 4.68617997 17.11655573 6 22 C5.34 22 4.68 22 4 22 C1.13498747 14.65062002 0.35224909 7.85879863 0 0 Z " fill="#502D8A" transform="translate(271,347)"/>
<path d="M0 0 C-2.21254219 0.73751406 -4.42534097 1.47387001 -6.640625 2.203125 C-8.40157919 2.79788436 -10.14411591 3.44769753 -11.875 4.125 C-16.51416994 5.42396758 -21.20616733 5.67586185 -26 6 C-22.05978214 3.3731881 -18.10886119 2.50426458 -13.5625 1.3125 C-12.70333984 1.07466797 -11.84417969 0.83683594 -10.95898438 0.59179688 C-10.12818359 0.37201172 -9.29738281 0.15222656 -8.44140625 -0.07421875 C-7.68545166 -0.27619873 -6.92949707 -0.47817871 -6.15063477 -0.6862793 C-3.79749384 -1.02954029 -2.24524509 -0.72719845 0 0 Z " fill="#402075" transform="translate(208,44)"/>
<path d="M0 0 C0.33 0.66 0.66 1.32 1 2 C1.99 1.34 2.98 0.68 4 0 C5.32 0 6.64 0 8 0 C8.33 1.98 8.66 3.96 9 6 C4.28093812 6 2.72962969 4.71245796 -1 2 C-0.67 1.34 -0.34 0.68 0 0 Z " fill="#542C92" transform="translate(292,390)"/>
<path d="M0 0 C0.33 0.99 0.66 1.98 1 3 C-0.2578125 5.04296875 -0.2578125 5.04296875 -2.125 7.1875 C-2.72570312 7.90292969 -3.32640625 8.61835937 -3.9453125 9.35546875 C-6.47481365 11.38003146 -7.84040336 11.33345224 -11 11 C-7.6189962 6.86378916 -4.33409466 3.18683431 0 0 Z " fill="#431F7F" transform="translate(109,92)"/>
<path d="M0 0 C0.33 0.66 0.66 1.32 1 2 C1.66 2.33 2.32 2.66 3 3 C2.67 3.33 2.34 3.66 2 4 C3.98 5.32 5.96 6.64 8 8 C7.01 8.495 7.01 8.495 6 9 C3.1796875 7.78515625 3.1796875 7.78515625 -0.125 6.0625 C-1.22070312 5.49660156 -2.31640625 4.93070312 -3.4453125 4.34765625 C-4.28835937 3.90292969 -5.13140625 3.45820313 -6 3 C-4 2 -2 1 0 0 Z " fill="#481F8B" transform="translate(154,433)"/>
<path d="M0 0 C11.385 1.485 11.385 1.485 23 3 C23 3.33 23 3.66 23 4 C17.39 4 11.78 4 6 4 C6 3.34 6 2.68 6 2 C4.35 2 2.7 2 1 2 C0.67 1.34 0.34 0.68 0 0 Z " fill="#0C021F" transform="translate(206,457)"/>
<path d="M0 0 C3.03474709 2.94278505 5.93065792 5.97431256 8.75 9.125 C9.34296875 9.78757812 9.9359375 10.45015625 10.546875 11.1328125 C12 13 12 13 13 16 C11 16 11 16 8.5625 13.8125 C5.45315449 10.39980371 3.45787198 7.37361595 2 3 C1.34 3 0.68 3 0 3 C0 2.01 0 1.02 0 0 Z " fill="#402076" transform="translate(406,108)"/>
<path d="M0 0 C0.66 0.33 1.32 0.66 2 1 C0.89902432 2.12812303 -0.20591556 3.25237811 -1.3125 4.375 C-1.92738281 5.00148438 -2.54226563 5.62796875 -3.17578125 6.2734375 C-5 8 -5 8 -8 10 C-10.1875 9.625 -10.1875 9.625 -12 9 C-11.21753906 8.43410156 -10.43507813 7.86820312 -9.62890625 7.28515625 C-8.61699219 6.55167969 -7.60507812 5.81820313 -6.5625 5.0625 C-5.55316406 4.33160156 -4.54382813 3.60070312 -3.50390625 2.84765625 C-1.17707392 1.22678115 -1.17707392 1.22678115 0 0 Z " fill="#0D0220" transform="translate(380,416)"/>
<path d="M0 0 C0.33 0.66 0.66 1.32 1 2 C-0.07518118 4.44332726 -1.19808566 6.76754523 -2.4375 9.125 C-2.77587891 9.78371094 -3.11425781 10.44242187 -3.46289062 11.12109375 C-4.30149926 12.75106547 -5.14984811 14.37601909 -6 16 C-7.03387225 12.8018885 -7.11048522 12.24105866 -5.625 9 C-5.08875 8.01 -4.5525 7.02 -4 6 C-3.835 5.2575 -3.67 4.515 -3.5 3.75 C-3 2 -3 2 0 0 Z " fill="#4D2A89" transform="translate(262,272)"/>
<path d="M0 0 C0.33 0 0.66 0 1 0 C1 3.63 1 7.26 1 11 C2.32 11.33 3.64 11.66 5 12 C3.625 13.5 3.625 13.5 2 15 C1.34 15 0.68 15 0 15 C-1.33257403 4.44191344 -1.33257403 4.44191344 0 0 Z " fill="#492486" transform="translate(112,155)"/>
<path d="M0 0 C5.28 0 10.56 0 16 0 C16 0.33 16 0.66 16 1 C15.15695313 1.04898438 14.31390625 1.09796875 13.4453125 1.1484375 C12.34960938 1.22320312 11.25390625 1.29796875 10.125 1.375 C8.48917969 1.47941406 8.48917969 1.47941406 6.8203125 1.5859375 C3.86953526 1.73253491 3.86953526 1.73253491 2 4 C1.30251417 5.31747324 0.63040043 6.64914193 0 8 C0 5.36 0 2.72 0 0 Z " fill="#CBB6E7" transform="translate(115,125)"/>
<path d="M0 0 C0.33 0.66 0.66 1.32 1 2 C-0.88829424 5.67720457 -3.26200503 8.90871536 -6 12 C-6.66 12 -7.32 12 -8 12 C-6.49087042 7.01987239 -3.44338151 3.75740058 0 0 Z " fill="#41207A" transform="translate(86,116)"/>
<path d="M0 0 C0.66 0.33 1.32 0.66 2 1 C-0.55203501 5.20335178 -3.67981918 6.87918396 -8 9 C-8.66 8.67 -9.32 8.34 -10 8 C-6.7 5.36 -3.4 2.72 0 0 Z " fill="#080015" transform="translate(119,65)"/>
<path d="M0 0 C1.92154764 0.9063904 3.83706654 1.82556804 5.75 2.75 C7.35101563 3.51570313 7.35101563 3.51570313 8.984375 4.296875 C11.86694755 5.92485639 13.80426309 7.54844908 16 10 C12 10 12 10 10.5078125 8.625 C10.01023437 8.08875 9.51265625 7.5525 9 7 C6.95051467 5.91544745 4.86433684 4.9953129 2.7421875 4.0625 C1 3 1 3 0 0 Z " fill="#0A001B" transform="translate(352,48)"/>
<path d="M0 0 C0.33 1.32 0.66 2.64 1 4 C-0.21484375 5.921875 -0.21484375 5.921875 -1.9375 7.75 C-2.50339844 8.36359375 -3.06929688 8.9771875 -3.65234375 9.609375 C-4.31943359 10.29773438 -4.31943359 10.29773438 -5 11 C-5.66 10.67 -6.32 10.34 -7 10 C-3.535 5.05 -3.535 5.05 0 0 Z " fill="#0B011C" transform="translate(425,368)"/>
<path d="M0 0 C1 3 1 3 -0.21484375 5.69921875 C-0.78332031 6.68535156 -1.35179687 7.67148437 -1.9375 8.6875 C-2.50339844 9.68136719 -3.06929688 10.67523438 -3.65234375 11.69921875 C-4.31943359 12.83810547 -4.31943359 12.83810547 -5 14 C-5.33 14 -5.66 14 -6 14 C-6.36539443 9.71422781 -5.48423598 7.65507938 -3 4.1875 C-2.1646875 3.00220703 -2.1646875 3.00220703 -1.3125 1.79296875 C-0.879375 1.20128906 -0.44625 0.60960937 0 0 Z " fill="#F1E4F9" transform="translate(265,270)"/>
<path d="M0 0 C1.40907283 2.81814566 0.50872691 4.17277204 -0.4375 7.125 C-0.72496094 8.03507813 -1.01242188 8.94515625 -1.30859375 9.8828125 C-1.53675781 10.58148438 -1.76492187 11.28015625 -2 12 C-2.66 12 -3.32 12 -4 12 C-4.8125 9.9375 -4.8125 9.9375 -5 7 C-3.58973707 4.45310725 -1.86023965 2.23357494 0 0 Z " fill="#532B90" transform="translate(126,154)"/>
<path d="M0 0 C-1 3 -1 3 -2.99609375 4.203125 C-3.80175781 4.54859375 -4.60742188 4.8940625 -5.4375 5.25 C-6.24058594 5.60578125 -7.04367188 5.9615625 -7.87109375 6.328125 C-10 7 -10 7 -12 6 C-10.37829621 4.99466333 -8.75252763 3.99588093 -7.125 3 C-5.76761719 2.1646875 -5.76761719 2.1646875 -4.3828125 1.3125 C-2 0 -2 0 0 0 Z " fill="#070018" transform="translate(144,51)"/>
<path d="M0 0 C-1 3 -1 3 -2.70703125 3.984375 C-3.40183594 4.23703125 -4.09664063 4.4896875 -4.8125 4.75 C-5.49957031 5.01296875 -6.18664062 5.2759375 -6.89453125 5.546875 C-9.28143969 6.06056958 -10.70637773 5.76282269 -13 5 C-11.21046815 4.16209211 -9.41830305 3.32980604 -7.625 2.5 C-6.62726563 2.0359375 -5.62953125 1.571875 -4.6015625 1.09375 C-2 0 -2 0 0 0 Z " fill="#0E0320" transform="translate(346,439)"/>
<path d="M0 0 C2.375 0.25 2.375 0.25 5 1 C6.125 2.9375 6.125 2.9375 7 5 C7.99 5.66 8.98 6.32 10 7 C9.67 7.66 9.34 8.32 9 9 C7.49428343 7.88266271 5.99555708 6.75589965 4.5 5.625 C3.6646875 4.99851562 2.829375 4.37203125 1.96875 3.7265625 C1.3190625 3.15679687 0.669375 2.58703125 0 2 C0 1.34 0 0.68 0 0 Z " fill="#44217C" transform="translate(112,409)"/>
<path d="M0 0 C4.455 0.99 4.455 0.99 9 2 C9 2.66 9 3.32 9 4 C6.36 4.33 3.72 4.66 1 5 C0.67 3.35 0.34 1.7 0 0 Z " fill="#4D2A8D" transform="translate(335,257)"/>
<path d="M0 0 C3 1 3 1 4.75 3.9375 C5.1625 4.948125 5.575 5.95875 6 7 C5.67 7.66 5.34 8.32 5 9 C4.01 9 3.02 9 2 9 C2 7.35 2 5.7 2 4 C1.34 3.67 0.68 3.34 0 3 C0 2.01 0 1.02 0 0 Z " fill="#4A268A" transform="translate(256,141)"/>
<path d="M0 0 C0.33 0.66 0.66 1.32 1 2 C-1.60300565 5.90450847 -3.8328898 6.8798913 -8 9 C-8.99 9 -9.98 9 -11 9 C-7.37 6.03 -3.74 3.06 0 0 Z " fill="#402079" transform="translate(121,82)"/>
<path d="M0 0 C0.66 0.33 1.32 0.66 2 1 C-0.31 3.97 -2.62 6.94 -5 10 C-5.33 9.01 -5.66 8.02 -6 7 C-2.73239437 1.36619718 -2.73239437 1.36619718 0 0 Z " fill="#45207E" transform="translate(415,379)"/>
<path d="M0 0 C0.33 0.66 0.66 1.32 1 2 C0.34 2 -0.32 2 -1 2 C-1.061875 2.598125 -1.12375 3.19625 -1.1875 3.8125 C-2.33938899 6.91373958 -4.06759592 7.64108103 -7 9 C-7.66 8.67 -8.32 8.34 -9 8 C-7.87811441 6.85111717 -6.75238316 5.70598863 -5.625 4.5625 C-4.99851562 3.92441406 -4.37203125 3.28632813 -3.7265625 2.62890625 C-2 1 -2 1 0 0 Z " fill="#54328D" transform="translate(293,265)"/>
<path d="M0 0 C0.33 0.99 0.66 1.98 1 3 C0.071875 3.763125 -0.85625 4.52625 -1.8125 5.3125 C-3.98276101 7.11848552 -6.05568065 8.9476629 -8 11 C-8.66 10.67 -9.32 10.34 -10 10 C-6.7 6.7 -3.4 3.4 0 0 Z " fill="#08001B" transform="translate(95,85)"/>
<path d="M0 0 C3.75 0.8125 3.75 0.8125 7 2 C7 2.66 7 3.32 7 4 C3.37 3.67 -0.26 3.34 -4 3 C-2.68 2.01 -1.36 1.02 0 0 Z " fill="#5D3B97" transform="translate(231,279)"/>
<path d="M0 0 C1.99954746 -0.04254356 4.00041636 -0.04080783 6 0 C7 1 7 1 7.0625 3.5625 C7.041875 4.366875 7.02125 5.17125 7 6 C5.83054208 5.19152271 4.66449539 4.37810888 3.5 3.5625 C2.8503125 3.11003906 2.200625 2.65757812 1.53125 2.19140625 C1.0259375 1.79824219 0.520625 1.40507812 0 1 C0 0.67 0 0.34 0 0 Z " fill="#090113" transform="translate(109,426)"/>
<path d="M0 0 C3.55007718 3.9050849 4.81819916 6.97734643 6 12 C5.34 12 4.68 12 4 12 C2.18757677 7.9811485 0.66498383 4.38889325 0 0 Z " fill="#080019" transform="translate(449,144)"/>
<path d="M0 0 C1.48285242 0.95262034 2.96118201 1.91228405 4.4375 2.875 C5.67306641 3.67550781 5.67306641 3.67550781 6.93359375 4.4921875 C9 6 9 6 10 8 C9.01 8 8.02 8 7 8 C7 7.34 7 6.68 7 6 C6.21625 5.7525 5.4325 5.505 4.625 5.25 C1.6083499 3.81349995 1.28434435 2.95279169 0 0 Z " fill="#090019" transform="translate(377,63)"/>
<path d="M0 0 C0.66 0.33 1.32 0.66 2 1 C1.67 2.32 1.34 3.64 1 5 C-0.32 5.33 -1.64 5.66 -3 6 C-3 4.68 -3 3.36 -3 2 C-2.01 1.34 -1.02 0.68 0 0 Z " fill="#4F2A8E" transform="translate(363,401)"/>
<path d="M0 0 C2.475 0.495 2.475 0.495 5 1 C5.33 1.99 5.66 2.98 6 4 C7.49985609 5.66710346 7.49985609 5.66710346 9 7 C6 7 6 7 4.39453125 5.46875 C3.87246094 4.8190625 3.35039063 4.169375 2.8125 3.5 C2.28269531 2.8503125 1.75289063 2.200625 1.20703125 1.53125 C0.80871094 1.0259375 0.41039063 0.520625 0 0 Z " fill="#3E1F72" transform="translate(96,395)"/>
<path d="M0 0 C0.66 0.33 1.32 0.66 2 1 C-0.64 3.97 -3.28 6.94 -6 10 C-6.33 9.01 -6.66 8.02 -7 7 C-6.01 6.67 -5.02 6.34 -4 6 C-2.90833725 4.06669397 -2.90833725 4.06669397 -2 2 C-1.34 1.34 -0.68 0.68 0 0 Z " fill="#0D001D" transform="translate(422,394)"/>
<path d="M0 0 C0.33 0.66 0.66 1.32 1 2 C-1.31 4.64 -3.62 7.28 -6 10 C-6.33 9.34 -6.66 8.68 -7 8 C-6.21366078 6.85050412 -5.42073742 5.70551011 -4.625 4.5625 C-4.18414062 3.92441406 -3.74328125 3.28632813 -3.2890625 2.62890625 C-2 1 -2 1 0 0 Z " fill="#4A2787" transform="translate(286,273)"/>
<path d="M0 0 C2.375 -0.1875 2.375 -0.1875 5 0 C5.66 0.99 6.32 1.98 7 3 C7.99 3.33 8.98 3.66 10 4 C10 4.66 10 5.32 10 6 C6.00499382 4.6302836 3.19990508 2.74277578 0 0 Z " fill="#41207A" transform="translate(138,429)"/>
<path d="M0 0 C0.99 0.33 1.98 0.66 3 1 C-0.96 4.465 -0.96 4.465 -5 8 C-5 5 -5 5 -2.5 2.3125 C-1.675 1.549375 -0.85 0.78625 0 0 Z " fill="#0C0021" transform="translate(400,416)"/>
<path d="M0 0 C3.26954202 0.56371414 4.82575883 1.49962266 7 4 C6.01 4.495 6.01 4.495 5 5 C2.96855359 4.06553465 0.96466413 3.06775224 -1 2 C-0.67 1.34 -0.34 0.68 0 0 Z " fill="#53239B" transform="translate(161,274)"/>
<path d="M0 0 C0.33 0 0.66 0 1 0 C1.36923077 5.41538462 1.36923077 5.41538462 -0.5 8.375 C-0.995 8.91125 -1.49 9.4475 -2 10 C-3.39195915 5.82412255 -1.82323219 3.86525224 0 0 Z " fill="#401E7A" transform="translate(56,164)"/>
<path d="M0 0 C0.33 0.99 0.66 1.98 1 3 C2.32 3 3.64 3 5 3 C5.33 3.99 5.66 4.98 6 6 C2.7 5.01 -0.6 4.02 -4 3 C-2.68 2.01 -1.36 1.02 0 0 Z " fill="#411F77" transform="translate(175,444)"/>
<path d="M0 0 C0.66 0.99 1.32 1.98 2 3 C0.6875 4.5 0.6875 4.5 -1 6 C-1.99 6 -2.98 6 -4 6 C-2.84826645 3.53199953 -1.95216435 1.95216435 0 0 Z " fill="#100420" transform="translate(404,394)"/>
<path d="M0 0 C-0.99 0.495 -0.99 0.495 -2 1 C-2.65213292 3.02463255 -2.65213292 3.02463255 -3 5 C-4.5 3.625 -4.5 3.625 -6 2 C-6 1.34 -6 0.68 -6 0 C-3 -1 -3 -1 0 0 Z " fill="#441F82" transform="translate(94,385)"/>
<path d="M0 0 C1.2065625 0.0309375 1.2065625 0.0309375 2.4375 0.0625 C2.7675 1.0525 3.0975 2.0425 3.4375 3.0625 C1.7875 3.3925 0.1375 3.7225 -1.5625 4.0625 C-1.5625 3.4025 -1.5625 2.7425 -1.5625 2.0625 C-2.2225 1.7325 -2.8825 1.4025 -3.5625 1.0625 C-2.5625 0.0625 -2.5625 0.0625 0 0 Z " fill="#472087" transform="translate(332.5625,256.9375)"/>
<path d="M0 0 C3.0916909 2.52956528 3.90931332 5.22454612 5 9 C3.0625 8.4375 3.0625 8.4375 1 7 C0.25 3.375 0.25 3.375 0 0 Z " fill="#070018" transform="translate(444,135)"/>
<path d="M0 0 C7.09821429 1.74107143 7.09821429 1.74107143 10 5 C8.51800098 4.55090939 7.03944764 4.09043436 5.5625 3.625 C4.73878906 3.36976563 3.91507813 3.11453125 3.06640625 2.8515625 C1 2 1 2 0 0 Z " fill="#3E1E71" transform="translate(152,437)"/>
<path d="M0 0 C0.99 0.33 1.98 0.66 3 1 C1.71034824 2.37562854 0.37310707 3.70766393 -1 5 C-1.66 5 -2.32 5 -3 5 C-2.625 3.0625 -2.625 3.0625 -2 1 C-1.34 0.67 -0.68 0.34 0 0 Z " fill="#451F7B" transform="translate(383,411)"/>
<path d="M0 0 C0.33 0.99 0.66 1.98 1 3 C-0.98 4.32 -2.96 5.64 -5 7 C-5.66 6.67 -6.32 6.34 -7 6 C-4.69 4.02 -2.38 2.04 0 0 Z " fill="#0A0219" transform="translate(399,400)"/>
<path d="M0 0 C0.33 0.66 0.66 1.32 1 2 C-0.13304992 5.39914975 -1.12518475 6.05254451 -4 8 C-4.66 7.67 -5.32 7.34 -6 7 C-4.02 4.69 -2.04 2.38 0 0 Z " fill="#100326" transform="translate(413,384)"/>
<path d="M0 0 C0.99 0.33 1.98 0.66 3 1 C1.87548273 3.9719385 0.77706209 6.33440687 -1 9 C-0.67 6.03 -0.34 3.06 0 0 Z " fill="#411F7A" transform="translate(434,347)"/>
<path d="M0 0 C-2.67478244 1.6627026 -4.9995144 2.99983813 -8 4 C-7.6875 2.0625 -7.6875 2.0625 -7 0 C-3.86650268 -1.04449911 -3.01031744 -0.93423645 0 0 Z " fill="#ECDEF4" transform="translate(162,282)"/>
<path d="M0 0 C0.75 1.625 0.75 1.625 1 4 C-0.9375 7.25 -0.9375 7.25 -3 10 C-4 7 -4 7 -3.22265625 5.17578125 C-2.1484375 3.45052083 -1.07421875 1.72526042 0 0 Z " fill="#09001B" transform="translate(50,144)"/>
<path d="M0 0 C1 2 1 2 0.25 4.5625 C-1 7 -1 7 -4 8 C-2.87548273 5.0280615 -1.77706209 2.66559313 0 0 Z " fill="#432177" transform="translate(69,140)"/>
<path d="M0 0 C3.77545388 1.09068668 6.47043472 1.9083091 9 5 C8.67 5.66 8.34 6.32 8 7 C6.66382648 6.02471263 5.3311249 5.04466681 4 4.0625 C3.2575 3.51722656 2.515 2.97195312 1.75 2.41015625 C1.1725 1.94480469 0.595 1.47945313 0 1 C0 0.67 0 0.34 0 0 Z " fill="#0D0123" transform="translate(376,80)"/>
<path d="M0 0 C0 3 0 3 -1 5 C-2.65 5 -4.3 5 -6 5 C-2.25 1.125 -2.25 1.125 0 0 Z " fill="#44217D" transform="translate(134,73)"/>
</svg>
