<?xml version="1.0" standalone="no"?>
<!DOCTYPE svg PUBLIC "-//W3C//DTD SVG 20010904//EN"
 "http://www.w3.org/TR/2001/REC-SVG-20010904/DTD/svg10.dtd">
<svg version="1.0" xmlns="http://www.w3.org/2000/svg"
 width="100.000000pt" height="25.000000pt" viewBox="0 0 100.000000 25.000000"
 preserveAspectRatio="xMidYMid meet">

<g transform="translate(0.000000,25.000000) scale(0.100000,-0.100000)"
fill="#000000" stroke="none">
<path d="M78 213 c-56 -35 -62 -123 -11 -163 65 -51 163 -1 163 84 0 65 -96
115 -152 79z m34 -68 c2 -21 0 -35 -7 -35 -7 0 -9 14 -7 35 2 19 5 35 7 35 2
0 5 -16 7 -35z m49 -22 c-19 -4 -22 -10 -19 -33 2 -16 1 -27 -4 -24 -10 6 -11
48 -1 57 3 4 16 6 27 6 18 -2 18 -2 -3 -6z"/>
<path d="M255 190 c-18 -8 -18 -9 -2 -9 16 -1 18 -8 15 -51 -3 -48 -2 -50 22
-49 14 0 19 3 13 6 -8 3 -13 23 -13 49 0 38 3 44 21 44 11 0 17 5 14 10 -7 12
-42 12 -70 0z"/>
<path d="M554 175 c-20 -20 -26 -22 -30 -10 -9 23 -31 18 -28 -7 1 -13 3 -35
3 -50 1 -16 5 -28 11 -28 5 0 7 13 4 30 -5 23 -3 30 10 30 9 0 16 -6 16 -13 0
-32 60 -61 75 -37 3 5 0 7 -8 4 -18 -7 -47 22 -47 46 0 24 29 53 46 46 8 -3
14 -1 14 4 0 19 -41 10 -66 -15z"/>
<path d="M350 146 c-19 -24 -8 -61 18 -64 l24 -4 -22 22 c-22 22 -23 41 -2 48
7 2 12 -4 12 -13 0 -9 5 -13 10 -10 8 5 7 11 -1 21 -15 18 -23 18 -39 0z"/>
<path d="M410 151 c0 -5 7 -14 15 -21 14 -12 14 -15 -1 -31 -10 -11 -12 -19
-6 -19 6 0 12 6 15 13 3 9 7 9 20 -2 18 -15 22 -5 7 19 -6 10 -4 20 7 32 9 10
11 18 5 18 -6 0 -12 -6 -15 -12 -4 -10 -7 -10 -18 0 -15 14 -29 16 -29 3z"/>
<path d="M645 151 c-3 -6 0 -11 7 -11 8 0 14 -9 15 -20 1 -11 -3 -20 -8 -20
-6 0 -7 5 -4 10 3 6 1 10 -4 10 -6 0 -11 -9 -11 -20 0 -15 7 -20 28 -20 28 0
29 2 23 37 -6 37 -32 56 -46 34z"/>
<path d="M715 118 c0 -21 4 -38 11 -38 6 0 9 12 6 30 -3 23 0 30 12 30 11 0
16 -9 16 -30 0 -16 4 -30 8 -30 5 0 6 16 3 37 -5 30 -10 36 -31 37 -23 1 -25
-2 -25 -36z"/>
<path d="M794 144 c3 -9 9 -27 12 -40 3 -13 10 -24 14 -24 11 0 24 40 16 47
-3 4 -6 0 -6 -8 -1 -10 -4 -9 -11 4 -5 9 -7 22 -4 27 3 6 -1 10 -10 10 -12 0
-15 -5 -11 -16z"/>
<path d="M835 150 c3 -5 8 -10 11 -10 2 0 4 5 4 10 0 6 -5 10 -11 10 -5 0 -7
-4 -4 -10z"/>
<path d="M875 150 c-4 -6 -1 -9 7 -8 7 2 14 -7 16 -19 2 -13 -1 -23 -7 -23 -6
0 -11 5 -11 12 0 9 -3 9 -11 1 -16 -16 -4 -30 26 -30 25 0 26 9 9 65 -4 15
-20 16 -29 2z"/>
<path d="M965 150 c3 -5 8 -10 11 -10 2 0 4 5 4 10 0 6 -5 10 -11 10 -5 0 -7
-4 -4 -10z"/>
<path d="M935 140 c-3 -5 4 -15 16 -24 13 -9 18 -19 14 -27 -5 -8 -4 -10 3 -5
7 4 12 11 12 17 0 15 -39 49 -45 39z"/>
</g>
</svg>
